<svg width="968" height="117" viewBox="0 0 968 117" fill="none" xmlns="http://www.w3.org/2000/svg">
<path d="M29.1096 116.411V102.047H38.3706V116.411H29.1096ZM29.1096 15.17V0.742996H38.3706V15.17H29.1096ZM34.8426 105.89C28.8366 105.89 23.4186 104.819 18.5886 102.677C13.8006 100.535 9.83161 97.511 6.68161 93.605C3.57361 89.699 1.53661 85.079 0.570609 79.745L9.57961 78.17C10.9656 83.966 13.9476 88.565 18.5256 91.967C23.1456 95.327 28.7106 97.007 35.2206 97.007C41.8146 97.007 47.1486 95.411 51.2226 92.219C55.2966 88.985 57.3336 84.764 57.3336 79.556C57.3336 75.692 56.1996 72.605 53.9316 70.295C51.6636 67.985 47.8206 66.011 42.4026 64.373L22.2426 58.073C10.0626 54.251 3.97261 47.027 3.97261 36.401C3.97261 31.445 5.19061 27.098 7.62661 23.36C10.1046 19.58 13.5276 16.64 17.8956 14.54C22.3056 12.44 27.4506 11.411 33.3306 11.453C39.0846 11.453 44.2296 12.545 48.7656 14.729C53.3436 16.871 57.1026 19.916 60.0426 23.864C62.9826 27.812 64.9356 32.495 65.9016 37.913L56.6406 39.677C56.0526 35.813 54.6876 32.432 52.5456 29.534C50.4456 26.636 47.7366 24.389 44.4186 22.793C41.1006 21.155 37.4046 20.315 33.3306 20.273C29.4666 20.273 26.0226 20.945 22.9986 22.289C19.9746 23.633 17.5806 25.502 15.8166 27.896C14.0946 30.248 13.2336 32.957 13.2336 36.023C13.2336 39.383 14.4306 42.239 16.8246 44.591C19.2606 46.901 23.1036 48.854 28.3536 50.45L45.6786 55.679C52.9866 57.863 58.2576 60.803 61.4916 64.499C64.7256 68.195 66.3426 73.13 66.3426 79.304C66.3426 84.638 65.0406 89.3 62.4366 93.29C59.8326 97.28 56.1576 100.388 51.4116 102.614C46.7076 104.798 41.1846 105.89 34.8426 105.89ZM142.367 104V13.28H199.067V22.163H151.628V53.537H191.507V62.42H151.628V95.117H199.067V104H142.367ZM305.404 105.89C299.062 105.89 293.35 104.84 288.268 102.74C283.228 100.598 279.049 97.574 275.731 93.668C272.455 89.762 270.313 85.121 269.305 79.745L278.755 78.17C280.267 84.05 283.459 88.67 288.331 92.03C293.203 95.348 299.02 97.007 305.782 97.007C310.234 97.007 314.224 96.314 317.752 94.928C321.28 93.5 324.052 91.484 326.068 88.88C328.084 86.276 329.092 83.189 329.092 79.619C329.092 77.267 328.672 75.272 327.832 73.634C326.992 71.954 325.879 70.568 324.493 69.476C323.107 68.384 321.595 67.481 319.957 66.767C318.319 66.011 316.723 65.402 315.169 64.94L292.174 58.073C289.402 57.275 286.84 56.267 284.488 55.049C282.136 53.789 280.078 52.298 278.314 50.576C276.592 48.812 275.248 46.754 274.282 44.402C273.316 42.05 272.833 39.362 272.833 36.338C272.833 31.214 274.177 26.783 276.865 23.045C279.553 19.307 283.228 16.43 287.89 14.414C292.552 12.398 297.865 11.411 303.829 11.453C309.877 11.453 315.274 12.524 320.02 14.666C324.808 16.808 328.756 19.874 331.864 23.864C334.972 27.812 337.03 32.495 338.038 37.913L328.336 39.677C327.706 35.729 326.257 32.306 323.989 29.408C321.721 26.51 318.823 24.284 315.295 22.73C311.809 21.134 307.966 20.315 303.766 20.273C299.692 20.273 296.059 20.966 292.867 22.352C289.717 23.696 287.218 25.544 285.37 27.896C283.522 30.248 282.598 32.936 282.598 35.96C282.598 39.026 283.438 41.483 285.118 43.331C286.84 45.179 288.94 46.628 291.418 47.678C293.938 48.728 296.374 49.589 298.726 50.261L316.492 55.49C318.34 55.994 320.503 56.729 322.981 57.695C325.501 58.619 327.937 59.963 330.289 61.727C332.683 63.449 334.657 65.717 336.211 68.531C337.765 71.345 338.542 74.915 338.542 79.241C338.542 83.441 337.702 87.2 336.022 90.518C334.384 93.836 332.053 96.629 329.029 98.897C326.047 101.165 322.54 102.887 318.508 104.063C314.518 105.281 310.15 105.89 305.404 105.89ZM451.276 105.89C442.246 105.89 434.623 103.895 428.407 99.905C422.191 95.873 417.487 90.308 414.295 83.21C411.103 76.112 409.507 67.922 409.507 58.64C409.507 49.358 411.103 41.168 414.295 34.07C417.487 26.972 422.191 21.428 428.407 17.438C434.623 13.406 442.246 11.39 451.276 11.39C461.818 11.39 470.428 14.099 477.106 19.517C483.784 24.893 488.362 32.117 490.84 41.189L481.39 43.646C479.458 36.464 475.993 30.773 470.995 26.573C465.997 22.373 459.424 20.273 451.276 20.273C444.178 20.273 438.277 21.89 433.573 25.124C428.869 28.358 425.32 32.873 422.926 38.669C420.574 44.423 419.356 51.08 419.272 58.64C419.23 66.2 420.385 72.857 422.737 78.611C425.131 84.365 428.701 88.88 433.447 92.156C438.235 95.39 444.178 97.007 451.276 97.007C459.424 97.007 465.997 94.907 470.995 90.707C475.993 86.465 479.458 80.774 481.39 73.634L490.84 76.091C488.362 85.163 483.784 92.408 477.106 97.826C470.428 103.202 461.818 105.89 451.276 105.89ZM567.74 104V13.28H602.768C603.65 13.28 604.637 13.322 605.729 13.406C606.863 13.448 607.997 13.574 609.131 13.784C613.877 14.498 617.888 16.157 621.164 18.761C624.482 21.323 626.981 24.557 628.661 28.463C630.383 32.369 631.244 36.695 631.244 41.441C631.244 48.287 629.438 54.23 625.826 59.27C622.214 64.31 617.048 67.481 610.328 68.783L607.115 69.539H577.001V104H567.74ZM622.676 104L604.784 67.082L613.667 63.68L633.323 104H622.676ZM577.001 60.719H602.516C603.272 60.719 604.154 60.677 605.162 60.593C606.17 60.509 607.157 60.362 608.123 60.152C611.231 59.48 613.772 58.199 615.746 56.309C617.762 54.419 619.253 52.172 620.219 49.568C621.227 46.964 621.731 44.255 621.731 41.441C621.731 38.627 621.227 35.918 620.219 33.314C619.253 30.668 617.762 28.4 615.746 26.51C613.772 24.62 611.231 23.339 608.123 22.667C607.157 22.457 606.17 22.331 605.162 22.289C604.154 22.205 603.272 22.163 602.516 22.163H577.001V60.719ZM746.957 105.89C737.927 105.89 730.304 103.895 724.088 99.905C717.872 95.873 713.168 90.308 709.976 83.21C706.784 76.112 705.188 67.922 705.188 58.64C705.188 49.358 706.784 41.168 709.976 34.07C713.168 26.972 717.872 21.428 724.088 17.438C730.304 13.406 737.927 11.39 746.957 11.39C756.029 11.39 763.652 13.406 769.826 17.438C776.042 21.428 780.746 26.972 783.938 34.07C787.172 41.168 788.789 49.358 788.789 58.64C788.789 67.922 787.172 76.112 783.938 83.21C780.746 90.308 776.042 95.873 769.826 99.905C763.652 103.895 756.029 105.89 746.957 105.89ZM746.957 97.007C754.055 97.007 759.977 95.39 764.723 92.156C769.469 88.922 773.018 84.428 775.37 78.674C777.764 72.878 778.961 66.2 778.961 58.64C778.961 51.08 777.764 44.423 775.37 38.669C773.018 32.915 769.469 28.421 764.723 25.187C759.977 21.953 754.055 20.315 746.957 20.273C739.859 20.273 733.958 21.89 729.254 25.124C724.55 28.358 721.001 32.873 718.607 38.669C716.255 44.423 715.058 51.08 715.016 58.64C714.974 66.2 716.129 72.857 718.481 78.611C720.875 84.323 724.445 88.817 729.191 92.093C733.937 95.327 739.859 96.965 746.957 97.007ZM880.058 104L853.85 13.28H863.489L884.72 88.187L905.825 13.343L915.527 13.28L936.758 88.187L957.863 13.28H967.565L941.42 104H932.096L910.676 29.597L889.382 104H880.058Z" fill="url(#paint0_linear_2850_236)"/>
<defs>
<linearGradient id="paint0_linear_2850_236" x1="-4" y1="56.5" x2="970" y2="56.5" gradientUnits="userSpaceOnUse">
<stop stop-color="#30C2E2"/>
<stop offset="1" stop-color="#E020F1"/>
</linearGradient>
</defs>
</svg>
