<svg width="110" height="53" viewBox="0 0 110 53" fill="none" xmlns="http://www.w3.org/2000/svg">
<g filter="url(#filter0_d_2308_578)">
<path d="M5.29054 34.4889C5.62996 34.4889 5.9411 34.3759 6.19567 34.1498C6.45023 33.9236 6.59166 33.5845 6.59166 33.217C6.59166 32.8496 6.45023 32.5387 6.19567 32.2843C5.9411 32.03 5.62996 31.9169 5.29054 31.9169C4.92283 31.9169 4.61169 32.0582 4.38541 32.3126C4.15913 32.567 4.0177 32.8779 4.0177 33.2453C4.0177 33.6127 4.15913 33.9236 4.38541 34.178C4.63998 34.3759 4.95111 34.4889 5.29054 34.4889Z" fill="#30C2E2"/>
<path d="M5.31842 36.2961C4.63958 36.2961 4.41329 36.7201 4.32844 36.8897C4.24358 37.1158 4.18701 37.3984 4.18701 37.7093V43.136C4.18701 43.4751 4.2153 43.7578 4.30015 43.9839C4.35672 44.1535 4.58301 44.5774 5.26185 44.5774C5.51642 44.5774 5.71441 44.5209 5.85584 44.4361C6.02555 44.3231 6.13869 44.1817 6.22355 43.9839C6.28012 43.8426 6.3084 43.7013 6.33669 43.5317C6.33669 43.4186 6.36498 43.2773 6.36498 43.136V37.6811C6.36498 37.3984 6.33669 37.1441 6.25183 36.9179C6.19526 36.7484 5.96898 36.2961 5.31842 36.2961Z" fill="#30C2E2"/>
<path d="M22.1483 33.5269C21.13 32.7355 19.5743 32.3115 17.5378 32.3115C16.5761 32.3115 15.6427 32.3963 14.7941 32.5942C13.9173 32.792 13.1536 33.1312 12.5313 33.6117C11.8807 34.0922 11.3716 34.7422 10.9756 35.5336C10.6079 36.325 10.4099 37.3142 10.4099 38.473C10.4099 39.3492 10.5231 40.1689 10.7493 40.9037C10.9756 41.6669 11.3716 42.3169 11.8807 42.8539C12.3899 43.3909 13.0687 43.8149 13.889 44.1258C14.681 44.4084 15.671 44.578 16.8024 44.578C17.8772 44.578 18.8106 44.4932 19.5743 44.3519C20.338 44.2106 21.0169 44.041 21.5543 43.8432C22.0917 43.6453 22.516 43.4475 22.8271 43.2496C23.1948 43.0235 23.3362 42.8822 23.4211 42.8257C23.5908 42.6843 23.6757 42.5148 23.6757 42.2887C23.6757 42.0908 23.5908 41.893 23.4494 41.7234C23.2514 41.4973 23.0534 41.469 22.912 41.469C22.8554 41.469 22.7988 41.469 22.6857 41.5255C22.6574 41.5255 22.6291 41.5538 22.6008 41.5538C22.4311 41.6669 22.2048 41.8082 21.922 41.9778C21.6391 42.1473 21.2714 42.2887 20.7906 42.4582C20.338 42.6278 19.7723 42.7409 19.1217 42.8539C18.4712 42.967 17.7075 43.0235 16.8306 43.0235C16.0669 43.0235 15.3881 42.9387 14.8224 42.7691C14.285 42.5996 13.8041 42.3452 13.4364 42.006C13.0687 41.6669 12.7859 41.2146 12.5879 40.6494C12.4182 40.1689 12.305 39.5471 12.2767 38.8687H23.0817C23.2797 38.8687 23.4211 38.7557 23.506 38.5013C23.5625 38.3883 23.5908 38.2469 23.6474 38.0774C23.6757 37.9078 23.704 37.7382 23.7322 37.5686C23.7605 37.399 23.7605 37.2294 23.7605 37.0881C23.7605 35.5336 23.2231 34.3465 22.1483 33.5269ZM12.6727 35.9858C12.899 35.5053 13.2384 35.1097 13.6627 34.7988C14.087 34.4879 14.6527 34.2617 15.275 34.1204C15.9255 33.9791 16.6892 33.8943 17.5378 33.8943C18.4429 33.8943 19.2066 33.9791 19.8006 34.1487C20.3946 34.3183 20.8754 34.5444 21.2431 34.827C21.5826 35.1097 21.8371 35.4488 22.0068 35.788C22.1483 36.1554 22.2331 36.5794 22.2331 37.0033V37.4273H12.305C12.3616 36.8903 12.4747 36.3815 12.6727 35.9858Z" fill="#F3F3F3"/>
<path d="M38.9513 38.1335C38.3573 37.9074 37.6502 37.7661 36.8865 37.6813C36.1511 37.5965 35.3591 37.5682 34.5954 37.5682H32.3326C31.6255 37.5682 30.9749 37.5117 30.4375 37.3987C29.9001 37.2856 29.4758 37.116 29.1647 36.8899C28.9101 36.6921 28.7687 36.4094 28.7687 36.042C28.7687 35.6463 28.8818 35.3354 29.1081 35.081C29.3627 34.7984 29.7021 34.5723 30.0981 34.4027C30.5223 34.2331 31.0598 34.0918 31.6255 34.007C32.2195 33.9222 32.8134 33.8939 33.4357 33.8939C34.652 33.8939 35.7834 34.007 36.7734 34.2614C37.7351 34.4875 38.6119 34.8267 39.4039 35.2223C39.4888 35.2789 39.5736 35.3071 39.6867 35.3071C39.8282 35.3071 40.0262 35.2506 40.2242 35.0245C40.3373 34.8549 40.4222 34.6853 40.4222 34.4592C40.4222 34.431 40.4222 34.431 40.4222 34.4027C40.3939 34.2896 40.3656 34.1766 40.3373 34.0635C40.2807 33.9222 40.1676 33.8092 39.9979 33.7244C39.0645 33.2156 38.0179 32.8482 36.9431 32.6503C35.8682 32.4525 34.6803 32.3394 33.4357 32.3394C32.672 32.3394 31.9083 32.396 31.1729 32.4808C30.4092 32.5938 29.7304 32.7634 29.1364 33.046C28.5141 33.3287 28.005 33.6961 27.609 34.1766C27.213 34.6571 26.9867 35.3071 26.9867 36.0703C26.9867 36.8051 27.1847 37.4269 27.609 37.8509C28.005 38.2748 28.5141 38.5857 29.1364 38.8118C29.7304 39.0097 30.4375 39.151 31.2012 39.2358C31.9366 39.2923 32.7286 39.3206 33.4923 39.3206H35.7551C36.4622 39.3206 37.1128 39.3771 37.6502 39.5184C38.1876 39.6315 38.6119 39.8293 38.923 40.0837C39.1776 40.3098 39.319 40.5925 39.319 40.9882C39.319 41.3556 39.2059 41.6382 38.9796 41.8643C38.7251 42.1187 38.3573 42.3448 37.9048 42.5144C37.4239 42.684 36.8582 42.797 36.236 42.8818C35.5854 42.9666 34.9348 42.9949 34.2277 42.9949H32.5023C31.9649 42.9949 31.4558 42.9384 30.9749 42.8536C30.4941 42.7688 30.0132 42.6275 29.5889 42.4579C29.1647 42.2883 28.7687 42.0622 28.401 41.8078C28.3161 41.7513 28.203 41.6665 28.005 41.6665C27.807 41.6665 27.609 41.7513 27.4675 41.9491C27.3544 42.1187 27.2978 42.2883 27.2978 42.4861C27.2978 42.6557 27.3544 42.9101 27.6373 43.1362C28.0615 43.5036 28.5707 43.7863 29.1647 43.9841C29.7304 44.182 30.3243 44.3233 30.9183 44.4363C31.5123 44.5211 32.1346 44.5777 32.7286 44.5777H34.3691C35.2177 44.5777 36.038 44.5211 36.8299 44.4081C37.6219 44.295 38.3573 44.0972 38.9796 43.8428C39.6302 43.5884 40.1393 43.221 40.5353 42.7688C40.9596 42.2883 41.1576 41.723 41.1576 41.0164C41.1576 40.2533 40.9596 39.6598 40.5353 39.2075C40.0827 38.6988 39.5736 38.3596 38.9513 38.1335Z" fill="#F3F3F3"/>
<path d="M47.123 34.9397C47.5755 34.5723 48.1412 34.2896 48.8484 34.1201C49.5838 33.9505 50.4889 33.8657 51.5355 33.8657C51.9597 33.8657 52.4123 33.8939 52.8649 33.9505C53.3174 34.007 53.77 34.0918 54.166 34.2048C54.562 34.2896 54.958 34.4027 55.2974 34.544C55.6368 34.6571 55.9197 34.7701 56.1177 34.8832C56.1459 34.8832 56.1459 34.8832 56.1742 34.9114C56.3439 34.968 56.4854 34.9962 56.5702 34.9962C56.8531 34.9962 57.0228 34.8832 57.1076 34.7984C57.2491 34.6571 57.3056 34.4875 57.3056 34.2896C57.3056 34.1483 57.2774 34.007 57.1925 33.8657C57.1076 33.7244 56.9945 33.6113 56.8248 33.5265C55.9762 33.0743 55.0711 32.7634 54.166 32.5938C53.2609 32.4242 52.384 32.3394 51.5355 32.3394C50.3758 32.3394 49.3292 32.4242 48.4241 32.6221C47.4907 32.8199 46.6987 33.1591 46.0481 33.6396C45.3976 34.1201 44.8884 34.7701 44.5207 35.5615C44.1813 36.3529 44.0116 37.3421 44.0116 38.5009C44.0116 39.688 44.2096 40.6773 44.5773 41.4404C44.945 42.2318 45.4824 42.8536 46.1613 43.3341C46.8118 43.7863 47.6321 44.1254 48.5372 44.295C49.4424 44.4646 50.4323 44.5494 51.5355 44.5494C52.384 44.5494 53.2609 44.4646 54.166 44.295C55.0711 44.1254 55.9762 43.8145 56.8531 43.3623C57.0228 43.2775 57.1359 43.1645 57.2208 43.0232C57.3056 42.8818 57.3339 42.7405 57.3339 42.5992C57.3339 42.4014 57.2491 42.2318 57.1359 42.0904C57.0511 42.0057 56.8814 41.8643 56.5985 41.8643C56.5137 41.8643 56.3722 41.8926 56.2025 41.9491C56.1742 41.9491 56.1742 41.9491 56.1459 41.9774C55.9197 42.0904 55.6651 42.2035 55.3257 42.3166C54.9863 42.4296 54.5903 42.5427 54.1943 42.6557C53.77 42.7405 53.3457 42.8253 52.8931 42.9101C52.4406 42.9666 51.988 42.9949 51.5637 42.9949C50.5738 42.9949 49.7252 42.9101 48.9898 42.7405C48.2827 42.5709 47.6887 42.3166 47.2361 41.9491C46.7835 41.61 46.4441 41.1577 46.2178 40.5925C45.9916 40.0272 45.8784 39.2923 45.8784 38.4727C45.8784 37.653 45.9916 36.9182 46.1896 36.3246C46.3593 35.7594 46.6987 35.3071 47.123 34.9397Z" fill="#F3F3F3"/>
<path d="M69.8377 32.6794C69.6963 32.6512 69.5549 32.5946 69.4134 32.5664C69.272 32.5381 69.1023 32.4816 68.876 32.4533C68.678 32.425 68.4517 32.3968 68.1689 32.3685C67.6032 32.312 66.8678 32.312 65.9061 32.425C65.3969 32.5098 64.8878 32.6512 64.407 32.849C63.9261 33.0751 63.4453 33.386 63.0493 33.7534C62.9927 33.81 62.9078 33.8948 62.8513 33.9796V33.7817C62.8513 33.4991 62.823 33.273 62.7381 33.0751C62.6816 32.9055 62.4836 32.6229 62.0027 32.6229C61.4936 32.6229 61.2673 32.849 61.1824 33.0468C61.0976 33.2447 61.041 33.4991 61.041 33.7817V43.0522C61.041 43.1935 61.041 43.3349 61.0693 43.4479C61.0693 43.5892 61.1259 43.7588 61.1542 43.8719C61.2107 44.0415 61.3239 44.1545 61.4653 44.2676C61.6067 44.3806 61.7764 44.4089 61.9744 44.4089C62.3704 44.4089 62.6533 44.211 62.7664 43.8436C62.8513 43.5892 62.8796 43.3349 62.8796 43.0522V36.4385C63.021 36.0428 63.219 35.6754 63.4735 35.3645C63.7564 35.0536 64.0675 34.7709 64.4352 34.5731C64.8029 34.3752 65.2555 34.2057 65.7081 34.0926C66.1889 33.9795 66.6981 33.923 67.2355 33.923C67.6032 33.923 67.9709 33.9513 68.282 34.0078C68.5932 34.0643 68.9326 34.1491 69.3286 34.2622H69.3569C69.4134 34.2905 69.4983 34.2904 69.5549 34.2904C69.8943 34.2904 70.0923 34.1209 70.1771 34.0078C70.3186 33.8382 70.3751 33.6404 70.3751 33.4425C70.3751 33.273 70.3468 33.1316 70.262 32.9903C70.1771 32.849 70.0357 32.7359 69.8377 32.6794Z" fill="#F3F3F3"/>
<path d="M84.9426 33.754C84.3203 33.2453 83.5566 32.8779 82.6232 32.6518C81.7181 32.4256 80.6432 32.3126 79.3987 32.3126C78.1824 32.3126 77.0793 32.4256 76.1742 32.6518C75.2407 32.8779 74.477 33.2453 73.8548 33.754C73.2325 34.2628 72.7516 34.9129 72.4688 35.7042C72.1859 36.4674 72.0162 37.4001 72.0162 38.4741C72.0162 39.4068 72.1577 40.2547 72.4122 40.9896C72.6668 41.7527 73.1194 42.4028 73.7133 42.9398C74.3073 43.4768 75.071 43.8725 76.0045 44.1551C76.9379 44.4377 78.0693 44.5791 79.3987 44.5791C80.7281 44.5791 81.8595 44.4377 82.7929 44.1551C83.7263 43.8725 84.5183 43.4768 85.084 42.9398C85.678 42.4028 86.1023 41.7527 86.3851 40.9896C86.6397 40.2547 86.7811 39.4068 86.7811 38.4741C86.7811 37.4001 86.6397 36.4956 86.3286 35.7042C86.0457 34.9411 85.5648 34.2628 84.9426 33.754ZM84.9709 38.4741C84.9709 38.8415 84.9426 39.2372 84.886 39.6046C84.8294 39.9721 84.7446 40.3112 84.6032 40.6504C84.4617 40.9896 84.2637 41.2722 84.0375 41.5548C83.8112 41.8375 83.4717 42.0636 83.0758 42.2897C82.6798 42.5158 82.1706 42.6854 81.5766 42.7984C80.9826 42.9115 80.2472 42.9963 79.427 42.9963C78.6067 42.9963 77.8713 42.9398 77.2773 42.7984C76.6833 42.6854 76.1742 42.5158 75.7782 42.2897C75.3822 42.0919 75.0428 41.8375 74.8165 41.5548C74.5619 41.2722 74.3922 40.9613 74.2508 40.6504C74.1093 40.3112 74.0245 39.9721 73.9679 39.6046C73.9113 39.2372 73.8831 38.8415 73.8831 38.4741C73.8831 37.6262 73.9962 36.8913 74.1942 36.2978C74.3922 35.7325 74.7316 35.2803 75.1559 34.9129C75.5802 34.5454 76.1742 34.2911 76.853 34.1215C77.5601 33.9519 78.437 33.8671 79.427 33.8671C80.4169 33.8671 81.2938 33.9519 82.0009 34.1215C82.6798 34.2911 83.2737 34.5454 83.698 34.9129C84.1223 35.2803 84.4334 35.7325 84.6597 36.2978C84.8577 36.8913 84.9709 37.6262 84.9709 38.4741Z" fill="#F3F3F3"/>
<path d="M105.533 32.8768C105.193 32.5377 104.713 32.5094 104.317 32.792C104.147 32.9333 104.005 33.1312 103.921 33.4138L101.262 41.6386L98.603 33.6117C98.4899 33.2725 98.3202 33.0181 98.1222 32.8486C97.8959 32.679 97.6413 32.5659 97.3868 32.5659C96.9908 32.5659 96.4816 32.7355 96.1988 33.5834L93.54 41.6103L90.8529 33.3856C90.7397 33.1029 90.6266 32.9051 90.4569 32.7638C90.0609 32.4811 89.58 32.5094 89.2406 32.8486C89.0426 33.0464 88.9578 33.2725 88.9578 33.5834C88.9578 33.7813 88.986 33.9226 89.0426 34.0356L92.3803 43.4192C92.6631 44.2671 93.1723 44.4367 93.5117 44.4367C93.738 44.4367 93.9642 44.3519 94.1622 44.1541C94.332 43.9845 94.4734 43.7584 94.6148 43.4192L97.3868 35.3075L100.159 43.4192C100.272 43.7584 100.413 43.9845 100.583 44.1541C100.781 44.3237 101.007 44.4367 101.262 44.4367C101.516 44.4367 101.743 44.3519 101.941 44.1541C102.139 43.9845 102.28 43.7301 102.393 43.4192L105.731 34.0356C105.787 33.9226 105.816 33.753 105.816 33.5834C105.816 33.329 105.703 33.0747 105.533 32.8768Z" fill="#F3F3F3"/>
<path d="M73.5101 7.66582C72.4353 4.72639 70.1159 2.40876 67.1177 1.30647C63.186 -0.134984 59.113 0.402028 55.8885 2.77619L55.5773 3.0023L55.4076 2.88924C52.1831 0.402028 48.0252 -0.163248 44.0653 1.30647C41.0953 2.40876 38.7759 4.69812 37.6728 7.63756C36.2585 11.4249 36.6828 15.4384 38.8891 18.6039C41.067 21.7412 44.6027 23.6066 48.3929 23.6066C51.1366 23.6066 53.2297 22.9 55.4076 21.2324C55.4642 21.2042 55.5208 21.1759 55.549 21.1759C55.6622 21.1759 55.747 21.2607 55.9168 21.3455C58.0381 22.8435 60.3292 23.6066 62.7335 23.6066C66.6086 23.6066 70.0876 21.8542 72.2373 18.7735C74.4718 15.6079 74.9244 11.5662 73.5101 7.66582ZM70.3705 14.4491C69.6351 16.9646 67.5985 18.9431 65.0812 19.6779C62.9315 20.2715 60.7252 20.0171 58.8584 18.9431C58.717 18.8583 58.6321 18.7452 58.6321 18.5756C58.6038 18.4061 58.6604 18.2647 58.8018 18.1517L63.0446 14.2795C63.2143 14.11 63.4972 14.11 63.6669 14.2513C64.2609 14.7035 64.6286 14.8731 64.77 14.8731L65.9297 9.89866C65.958 9.72908 65.9297 9.55949 65.8166 9.44644C65.7034 9.30512 65.5337 9.24859 65.364 9.27686L60.2727 9.84213C60.2444 9.84213 60.1878 9.84213 60.1595 9.8704C60.1595 10.04 60.4424 10.6335 60.8101 11.1423L60.9515 11.3401L52.9185 18.6039C51.5608 19.5366 50.0334 20.0171 48.4212 20.0171C47.6858 20.0171 46.9786 19.9323 46.2432 19.7345C43.641 19.0279 41.5762 17.0211 40.8125 14.4774C40.077 11.9619 40.5013 9.36165 42.0287 7.32665C43.5278 5.31993 45.9038 4.13285 48.3929 4.13285C49.7789 4.13285 51.1366 4.50028 52.3245 5.17861C52.466 5.2634 52.5508 5.37645 52.5791 5.54604C52.6074 5.71562 52.5508 5.85694 52.4094 5.96999L47.9969 9.98345C47.8272 10.153 47.5726 10.153 47.3746 10.0117C46.7806 9.55949 46.4129 9.41817 46.2998 9.41817L45.1401 14.3926C45.1118 14.5622 45.1401 14.7318 45.2532 14.8448C45.3664 14.9861 45.5361 15.0427 45.7058 15.0144L50.7971 14.4491C50.882 14.4491 50.9386 14.4209 50.9951 14.3643C50.9951 14.2513 50.8537 13.9404 50.3446 13.3186C50.1749 13.1207 50.2031 12.8381 50.4011 12.6402L58.0947 5.60256C58.123 5.5743 58.123 5.5743 58.1513 5.5743C59.509 4.61333 61.0929 4.07632 62.7618 4.07632C65.2509 4.07632 67.6268 5.2634 69.1259 7.27013C70.6533 9.33338 71.1059 11.9619 70.3705 14.4491Z" fill="url(#paint0_linear_2308_578)"/>
</g>
<defs>
<filter id="filter0_d_2308_578" x="0.0177002" y="0.504967" width="109.798" height="52.0741" filterUnits="userSpaceOnUse" color-interpolation-filters="sRGB">
<feFlood flood-opacity="0" result="BackgroundImageFix"/>
<feColorMatrix in="SourceAlpha" type="matrix" values="0 0 0 0 0 0 0 0 0 0 0 0 0 0 0 0 0 0 127 0" result="hardAlpha"/>
<feOffset dy="4"/>
<feGaussianBlur stdDeviation="2"/>
<feComposite in2="hardAlpha" operator="out"/>
<feColorMatrix type="matrix" values="0 0 0 0 0 0 0 0 0 0 0 0 0 0 0 0 0 0 0.25 0"/>
<feBlend mode="normal" in2="BackgroundImageFix" result="effect1_dropShadow_2308_578"/>
<feBlend mode="normal" in="SourceGraphic" in2="effect1_dropShadow_2308_578" result="shape"/>
</filter>
<linearGradient id="paint0_linear_2308_578" x1="47.6836" y1="1.63993" x2="68.7853" y2="22.1437" gradientUnits="userSpaceOnUse">
<stop stop-color="#13E6C0"/>
<stop offset="0.509176" stop-color="#5D98F0"/>
<stop offset="1" stop-color="#E020F1"/>
</linearGradient>
</defs>
</svg>
