<svg width="154" height="95" viewBox="0 0 154 95" fill="none" xmlns="http://www.w3.org/2000/svg">
<path d="M150.007 29.1848C145.629 17.2048 136.184 7.75909 123.973 3.26661C107.962 -2.60819 91.374 -0.419538 78.2421 9.25659L76.975 10.1781L76.2839 9.71736C63.152 -0.419539 46.2188 -2.72338 30.0919 3.26661C17.9967 7.75909 8.55098 17.0896 4.05849 29.0696C-1.70111 44.5053 0.0267544 60.8626 9.01173 73.7641C17.8815 86.5504 32.2805 94.1531 47.7163 94.1531C58.8899 94.1531 67.4141 91.2733 76.2839 84.477C76.5143 84.3618 76.7447 84.2466 76.8598 84.2466C77.3206 84.2466 77.6662 84.5922 78.3573 84.9377C86.9967 91.0429 96.3273 94.1531 106.119 94.1531C121.9 94.1531 136.069 87.0112 144.823 74.4553C153.923 61.5538 155.766 45.0813 150.007 29.1848ZM137.22 56.8309C134.225 67.083 125.932 75.1464 115.68 78.1414C106.925 80.5604 97.94 79.5237 90.3373 75.1464C89.7613 74.8008 89.4158 74.3401 89.4158 73.6489C89.3006 72.9578 89.531 72.3818 90.1069 71.921L107.386 56.1397C108.077 55.4486 109.229 55.4486 109.92 56.0245C112.339 57.8676 113.836 58.5588 114.412 58.5588L119.135 38.285C119.25 37.5938 119.135 36.9027 118.675 36.4419C118.214 35.8659 117.523 35.6356 116.831 35.7508L96.0969 38.0546C95.9817 38.0546 95.7513 38.0546 95.6361 38.1698C95.6361 38.8609 96.788 41.28 98.2855 43.3534L98.8615 44.1598L66.147 73.7641C60.6178 77.5655 54.3974 79.5237 47.8315 79.5237C44.8365 79.5237 41.9566 79.1781 38.9617 78.3718C28.364 75.492 19.955 67.3134 16.8448 56.9461C13.8498 46.694 15.5777 36.0963 21.7981 27.8025C27.9032 19.6239 37.5794 14.7858 47.7163 14.7858C53.3607 14.7858 58.8899 16.2833 63.7279 19.0479C64.3039 19.3935 64.6495 19.8543 64.7647 20.5454C64.8799 21.2366 64.6495 21.8125 64.0735 22.2733L46.1036 38.6306C45.4124 39.3217 44.3757 39.3217 43.5693 38.7457C41.1503 36.9027 39.6528 36.3267 39.1921 36.3267L34.4692 56.6005C34.354 57.2917 34.4692 57.9828 34.9299 58.4436C35.3907 59.0195 36.0819 59.2499 36.773 59.1347L57.5076 56.8309C57.8531 56.8309 58.0835 56.7157 58.3139 56.4853C58.3139 56.0245 57.7379 54.7574 55.6645 52.2232C54.9733 51.4169 55.0885 50.2649 55.8949 49.4586L87.2271 20.7758C87.3423 20.6606 87.3423 20.6606 87.4575 20.6606C92.9867 16.7441 99.4375 14.5554 106.234 14.5554C116.371 14.5554 126.047 19.3935 132.152 27.5721C138.372 35.9811 140.215 46.694 137.22 56.8309Z" fill="url(#paint0_linear_3_1392)"/>
<defs>
<linearGradient id="paint0_linear_3_1392" x1="44.8277" y1="4.62565" x2="130.828" y2="88.1256" gradientUnits="userSpaceOnUse">
<stop stop-color="#13E6C0"/>
<stop offset="0.509176" stop-color="#5D98F0"/>
<stop offset="1" stop-color="#E020F1"/>
</linearGradient>
</defs>
</svg>
